PathFileType	4	(X/Y/Z)	PS_ngait_og_ss8.trc	
DataRate	CameraRate	NumFrames	NumMarkers	Units	OrigDataRate	OrigDataStartFrame	OrigNumFrames	
120.00	120.00	10	39	mm	120.00	410	129	
Frame#	Time	Sternum			Neck			RShoulder			LShoulder			Xiphoid			Thoracic			RAsis			LAsis			RPsis			LPsis			LThighSuperior			LThighInferior			LThighLateral			LShankSuperior			LShankInferior			LShankLateral			RThighSuperior			RThighInferior			RThighLateral			RShankSuperior			RShankInferior			RShankLateral			RHeel			RToe			RMidfootMedial			RMidfootLateral			RHindfoot			RMidfootSuperior			RToeMedial			RToeLateral			LHeel			LToe			LMidfootMedial			LMidfootLateral			LHindfoot			LMidfootSuperior			LToeMedial			LToeLateral			Sacral			
		X1	Y1	Z1	X2	Y2	Z2	X3	Y3	Z3	X4	Y4	Z4	X5	Y5	Z5	X6	Y6	Z6	X7	Y7	Z7	X8	Y8	Z8	X9	Y9	Z9	X10	Y10	Z10	X11	Y11	Z11	X12	Y12	Z12	X13	Y13	Z13	X14	Y14	Z14	X15	Y15	Z15	X16	Y16	Z16	X17	Y17	Z17	X18	Y18	Z18	X19	Y19	Z19	X20	Y20	Z20	X21	Y21	Z21	X22	Y22	Z22	X23	Y23	Z23	X24	Y24	Z24	X25	Y25	Z25	X26	Y26	Z26	X27	Y27	Z27	X28	Y28	Z28	X29	Y29	Z29	X30	Y30	Z30	X31	Y31	Z31	X32	Y32	Z32	X33	Y33	Z33	X34	Y34	Z34	X35	Y35	Z35	X36	Y36	Z36	X37	Y37	Z37	X38	Y38	Z38	X39	Y39	Z39	

33	0.267	359.91022	1451.40051	94.32842	195.98340	1551.11780	90.69102	238.23250	1539.41187	254.46271	231.45892	1537.15100	-47.71825	392.78690	1293.84521	106.42198	115.79243	1333.33789	100.66462	300.48718	1025.38049	249.04192	322.71570	1025.15063	-26.74124	117.46053	1052.55310	154.93044	119.71561	1044.75195	51.22062	265.61292	848.37036	-81.94681	309.66388	620.47296	-43.30070	376.19705	729.54553	-1.08679	313.21121	381.82932	-43.59528	280.90286	184.40068	-7.16784	334.90829	277.36450	25.67966	278.01880	832.61200	298.96570	341.40924	607.45288	302.74966	393.20978	770.01245	250.85149	284.44980	485.85742	313.69586	133.67740	287.22354	266.11642	257.95651	353.21457	234.81656	1.08435	250.43750	203.47722	231.92625	38.73740	229.87251	148.88495	84.71171	174.65810	136.36824	85.14375	289.93179	98.42145	119.31427	278.49814	154.83571	155.95325	225.32292	183.88701	60.20214	179.69781	179.24121	59.89382	283.07498	191.29346	64.96135	51.25076	501.13675	62.81662	8.94701	407.06088	37.28346	70.89104	397.04172	33.00243	-45.37870	342.94775	30.45205	-31.55622	378.15585	97.83486	21.38789	448.60187	39.06166	62.99967	440.75229	43.87774	-40.60839	118.58807	1048.65259	103.07553 
34	0.275	367.88376	1452.19128	93.61701	204.14621	1552.05884	89.93983	246.18570	1540.09863	253.73843	239.85112	1538.25317	-48.38358	400.66354	1294.51465	105.56767	123.74825	1334.28467	99.79707	308.09677	1026.25879	248.46841	330.30420	1025.72302	-27.35321	125.13734	1053.72742	154.31412	127.39524	1045.76978	50.73066	272.02194	848.36353	-82.79077	313.45267	620.27893	-43.21412	380.92944	728.99084	-0.90314	314.78714	381.60794	-43.29544	281.51620	184.43030	-7.11335	335.91266	277.06854	26.01586	286.35791	833.73145	298.36075	353.56168	609.56348	301.87888	403.17059	772.88550	250.67154	299.61905	485.50504	312.14682	154.79514	282.57977	265.01675	276.45038	352.78705	233.44553	22.87767	240.89290	202.23761	263.93524	39.77603	229.25546	177.67511	81.69690	173.21390	165.31352	81.58728	288.64218	125.94603	113.92477	277.26349	180.81798	152.78404	224.36491	214.89371	58.58537	178.98479	210.15565	58.26166	282.35770	191.32054	65.04207	51.24757	501.27893	62.64103	8.99302	407.13916	37.32653	70.66473	397.07135	32.94464	-45.41343	342.95160	30.48162	-31.52509	378.41159	97.83032	21.93526	448.58450	38.99745	62.93913	440.96915	43.79203	-40.68740	126.26629	1049.74866	102.52238 
35	0.283	375.99542	1452.91895	93.17900	212.35483	1552.85803	89.16756	254.18649	1540.68823	253.08597	248.03397	1539.26550	-49.11853	408.63644	1295.11316	104.84023	131.73959	1335.15405	98.98601	315.74582	1027.19250	247.99229	338.02679	1026.42896	-28.03509	132.81923	1054.67651	153.77780	135.16852	1046.68408	50.12662	278.45694	848.27106	-83.70704	316.96671	620.43646	-43.15494	385.61905	728.40625	-0.37365	318.02200	381.78311	-43.87864	282.03876	184.49539	-7.10793	336.77118	276.64047	26.08096	294.56326	834.84045	297.85977	365.51489	611.61761	300.89944	412.49216	775.73315	249.99649	314.40268	485.72458	312.12860	176.30870	277.81781	264.01099	295.54874	352.18811	232.04065	45.57892	230.84238	201.31615	295.02325	40.37127	228.20995	207.11276	78.60664	171.98682	194.83585	77.89124	287.41782	154.13586	108.57681	276.22070	207.19998	149.75450	223.15147	245.31190	57.07506	177.85353	240.42088	56.57229	281.21860	191.34692	65.03316	51.31853	501.31564	62.49528	8.89888	407.41571	37.52105	70.88423	397.12839	32.90046	-45.38484	342.96649	30.45535	-31.47436	378.39636	97.67557	22.06201	448.75589	39.07963	63.07528	440.81375	43.62179	-40.53811	133.99388	1050.68030	101.95221 
36	0.292	384.04758	1453.52795	92.44315	220.60063	1553.58081	88.42548	262.14078	1541.16248	252.47647	256.38510	1540.09253	-49.78069	416.69635	1295.81519	104.06892	139.65001	1335.99426	98.15064	323.16101	1027.79443	247.35492	345.73495	1027.00134	-28.39906	140.33859	1055.50049	152.99849	142.84261	1047.57397	49.59131	284.91876	848.10004	-84.70024	320.42456	620.68274	-43.14410	390.26270	727.78912	0.06361	319.21075	381.53180	-43.11464	283.46085	183.89995	-6.55816	338.07452	276.71399	26.57837	302.67709	835.94128	297.45477	377.28409	613.43042	299.95779	422.14453	778.54706	249.68130	329.54794	485.32083	311.28046	198.15660	272.78558	263.08090	314.21463	351.54263	230.76518	68.73770	220.30414	200.32227	326.30511	41.03574	227.27924	237.00085	75.36512	171.18088	224.81874	74.27248	286.57220	182.69542	102.95163	275.25580	233.91168	146.58350	222.14781	275.90051	55.55295	176.93411	271.09387	54.96561	280.30270	191.32498	64.98102	51.31271	501.33917	62.33735	8.88621	407.12576	36.94202	71.07449	397.13354	32.90590	-45.35226	342.95615	30.39983	-31.41689	378.44516	97.56109	22.04930	448.83115	38.66005	62.99899	440.81577	43.63365	-40.58893	141.59059	1051.53723	101.29490 
37	0.300	392.16095	1454.10010	91.89046	228.84137	1554.15271	87.57808	270.08221	1541.53015	251.91864	264.67325	1540.75513	-50.35915	424.58524	1296.22534	103.38272	147.68082	1336.53943	97.55238	330.03574	1027.89636	246.33736	353.32706	1027.11475	-28.72300	147.50705	1056.12842	151.55966	150.44560	1048.48376	49.08474	291.40823	847.85718	-85.77167	323.94589	620.69647	-43.16993	394.78568	726.98987	0.45926	321.03082	381.79221	-42.97212	283.94458	183.87039	-6.69615	339.28424	276.41150	26.97196	310.74500	837.01532	297.12665	388.81958	615.13586	298.99289	431.76767	781.25970	249.33269	344.75131	484.58221	310.62274	220.38702	267.42517	262.17279	333.30838	350.83060	229.57658	92.81570	209.76080	199.82135	358.26883	42.58603	226.79893	267.12427	72.12451	170.44937	255.15315	70.48816	285.80869	211.67064	97.56304	274.54498	260.42514	143.08968	221.42943	307.21307	54.34176	176.38947	302.34918	53.65326	279.75476	191.29240	65.01749	51.31977	501.56168	62.11079	8.96007	407.00348	36.76760	71.10027	397.11264	32.92907	-45.37003	342.98462	30.46815	-31.43834	378.28415	97.51281	21.93098	448.92297	38.46021	62.95749	441.06918	43.62224	-40.63359	148.97632	1052.30615	100.32220 
38	0.308	400.15363	1454.45190	91.38108	237.07758	1554.59692	86.94547	278.05682	1541.81506	251.44220	272.95413	1541.21021	-50.92589	432.60724	1296.55396	102.97877	155.64719	1337.13354	96.86340	338.00891	1028.08740	246.13042	360.37390	1027.28955	-28.94551	155.27696	1057.04370	151.97954	157.57098	1048.86755	48.99105	297.92596	847.54913	-86.91958	327.73059	620.46149	-42.87158	399.39941	726.29443	0.99442	322.93649	381.29120	-42.84085	284.56909	183.94069	-6.84701	339.97430	275.93176	27.17194	318.81549	838.01874	296.84326	400.17014	616.76709	297.90915	441.24277	783.66376	248.67088	359.92416	483.62274	309.20874	242.81200	262.15686	261.37759	352.53915	349.71335	228.44893	117.30139	198.94052	199.20268	389.04013	42.86977	226.12315	297.15393	69.32404	170.00139	285.71893	67.26575	285.41180	241.13956	92.10287	273.98236	287.96609	140.12732	220.81102	337.57397	52.92808	175.76375	332.84647	52.13610	279.13464	191.38268	65.03715	51.32598	501.77841	61.84735	9.04007	407.12064	36.89986	71.30034	397.11072	32.94603	-45.38201	343.03299	30.41762	-31.43999	378.31161	97.41168	22.05823	449.08966	38.44738	63.09782	441.19043	43.51376	-40.49453	156.42398	1052.95569	100.48529 
39	0.317	408.32803	1454.63501	91.00679	245.34488	1554.97864	86.25141	286.19955	1542.02710	251.03624	281.28473	1541.58044	-51.35014	440.54669	1296.74768	102.70622	163.68756	1337.55859	96.41604	346.75186	1029.43665	246.52803	368.69968	1028.80652	-29.77259	163.78113	1057.72778	152.65471	165.74190	1049.11450	48.09405	304.47241	847.18231	-88.13943	331.37793	620.47626	-42.89400	404.51154	725.48792	1.63587	324.83252	381.06726	-42.76074	285.25275	183.94952	-6.58048	341.13535	275.74731	27.41520	326.93991	838.87378	296.55560	411.41742	618.18262	296.67688	450.61121	785.75238	247.84288	374.58646	482.85959	308.23660	265.55563	256.71466	260.80350	371.77689	348.69815	227.49867	142.46457	187.97528	198.54233	420.51938	44.08945	225.80341	328.78735	66.05573	168.67700	316.72000	64.16090	284.98129	271.07596	86.75669	273.44855	315.45584	136.88831	218.50735	369.30035	51.56689	174.74751	363.32654	51.32766	278.05661	191.39189	65.03327	51.32869	502.03607	61.55508	9.23279	407.23849	36.79101	71.34949	397.16064	32.93935	-45.39676	342.98801	30.45723	-31.38280	378.33246	97.29660	22.20884	449.21970	38.23550	63.20065	441.45972	43.43766	-40.39549	164.76151	1053.42114	100.37438 
40	0.325	416.40137	1454.74280	90.61697	253.54192	1555.28772	85.67012	294.23297	1542.15161	250.68362	289.54016	1541.85120	-51.84821	448.45740	1296.81641	102.36078	171.73412	1337.88965	96.03362	354.95428	1029.95447	246.24277	376.48026	1029.17444	-30.28737	171.84052	1058.24023	152.65189	173.53130	1049.38013	47.62498	311.04807	846.76288	-89.42413	335.05728	620.23108	-42.73947	409.13196	725.26489	2.41695	326.71454	380.57822	-42.44861	286.03278	183.85559	-6.38065	342.10272	275.26312	27.54576	335.17404	839.49921	296.22272	422.35046	619.52289	295.55594	459.75436	787.55475	246.63953	388.45712	481.85828	306.86047	288.58057	251.39621	260.38989	390.95331	347.47137	226.67065	168.36188	176.95537	198.13901	452.95450	45.98167	225.79633	358.98010	63.34026	169.05110	347.90134	61.28616	284.81451	301.49673	81.71574	273.00906	343.36844	133.45337	219.25362	400.94785	50.75473	175.21442	395.97067	50.55490	278.57642	191.30110	65.09707	51.38113	501.98901	61.28083	9.19452	407.33539	36.77936	71.46735	397.17212	32.92339	-45.37843	343.10208	30.31235	-31.40097	378.47180	97.12402	22.53652	449.23004	38.10813	63.28166	441.27362	43.26789	-40.30170	172.68590	1053.81018	100.13843 
41	0.333	424.54718	1454.80969	90.33383	261.78159	1555.44495	85.27368	302.38477	1542.22253	250.44115	298.01596	1541.83826	-51.94209	456.41803	1296.53333	101.94507	179.77841	1338.17847	95.67406	362.58191	1029.72852	245.72702	384.06519	1029.37366	-30.59300	179.50748	1058.63586	152.25085	181.12067	1049.76953	47.27435	317.65323	846.29688	-90.76424	338.79471	620.00372	-42.68879	413.62714	724.09186	2.51459	328.59872	380.44427	-42.17570	286.78564	183.68556	-6.34488	342.56769	274.69547	27.62839	343.52811	839.84827	295.80710	433.07849	620.66986	294.34418	468.82990	789.02942	245.36320	402.41055	480.97046	305.77100	311.74509	245.78056	259.76208	410.07114	346.23642	225.71112	194.70610	166.04396	197.98015	485.14844	48.34915	225.76491	390.67218	61.10573	168.29025	379.28952	58.91030	284.88120	331.94501	77.52894	273.54459	371.64160	130.58192	218.20334	433.29233	50.49712	174.84995	427.68500	50.45516	278.17987	191.39934	65.02737	51.48375	502.07361	61.11481	9.20615	407.36646	36.67093	71.52328	397.19098	32.88904	-45.36438	342.99979	30.49111	-31.36134	378.54233	97.00665	22.65090	449.30539	37.97123	63.29674	441.32541	43.19014	-40.28185	180.31407	1054.20264	99.76260 
42	0.342	432.66312	1454.53467	90.06294	270.09668	1555.50635	84.89717	310.49579	1542.22668	250.21455	306.09775	1541.76563	-52.37401	464.37689	1296.42322	101.82915	187.82077	1338.32458	95.47938	370.18210	1029.42468	245.25179	391.64780	1029.28125	-30.87393	187.17317	1058.87585	151.81587	188.76050	1050.10437	47.02960	324.28842	845.78973	-92.14830	342.53485	619.73932	-42.67358	418.10703	723.00629	2.54613	330.46613	380.17987	-42.34717	287.33707	183.81583	-6.57072	344.28467	274.98566	28.26761	351.83823	840.11566	295.33737	443.38757	621.64319	293.11465	477.62640	790.33789	243.86783	415.84885	479.50336	304.17010	335.04108	240.42574	259.38580	429.15848	345.05356	224.84807	221.60501	155.30916	197.85579	517.48236	51.26506	226.00363	422.49280	58.92722	168.76932	410.89740	57.00774	284.95264	362.38254	73.29095	274.04938	400.02341	127.72129	218.19031	465.46902	50.49801	175.20964	460.10327	50.87563	278.55170	191.41061	65.03206	51.53817	502.21512	60.87488	9.22259	407.36905	36.60025	71.58907	397.18402	32.83889	-45.36356	342.97501	30.52394	-31.37192	378.54001	96.92807	22.73816	449.39642	37.83730	63.30917	441.43381	43.07502	-40.26981	187.96683	1054.49011	99.42273 
